<svg width="70" height="61" viewBox="0 0 70 61" fill="none" xmlns="http://www.w3.org/2000/svg">
<path d="M32.3887 60.5615H0.52832V36.0254C0.52832 26.9922 2.4082 19.8633 6.16797 14.6387C9.92773 9.41406 16.373 4.7998 25.5039 0.795898L32.3887 13.833C26.7734 16.4697 22.8916 19.1064 20.7432 21.7432C18.5947 24.3311 17.3984 27.4072 17.1543 30.9717H32.3887V60.5615ZM69.5225 60.5615H37.6621V36.0254C37.6621 26.9922 39.542 19.8633 43.3018 14.6387C47.0615 9.41406 53.5068 4.7998 62.6377 0.795898L69.5225 13.833C63.9072 16.4697 60.0254 19.1064 57.877 21.7432C55.7285 24.3311 54.5322 27.4072 54.2881 30.9717H69.5225V60.5615Z" fill="#FF8B0F"/>
</svg>
