<svg width="100" height="100" viewBox="0 0 100 100" fill="none" xmlns="http://www.w3.org/2000/svg">
<circle cx="50" cy="50" r="50" fill="#FF8B0F"/>
<path d="M46.4531 63.6523V51.5156C46.4531 51.2463 46.3461 50.9879 46.1556 50.7975C45.9652 50.607 45.7069 50.5 45.4375 50.5C39.2346 50.5 38.3649 61.1429 38.3309 61.5957C38.3158 61.7967 38.3609 61.9976 38.4604 62.1729C38.5598 62.3482 38.7092 62.49 38.8895 62.5801L40.3594 63.3152V63.6529L39.5723 71.525C39.5299 71.9485 39.5768 72.3763 39.7098 72.7806C39.8429 73.185 40.0592 73.5569 40.3449 73.8726C40.6305 74.1882 40.9791 74.4405 41.3682 74.6131C41.7573 74.7858 42.1782 74.875 42.6039 74.875H44.2086C44.6343 74.875 45.0552 74.7858 45.4443 74.6131C45.8334 74.4405 46.182 74.1882 46.4676 73.8726C46.7532 73.5569 46.9696 73.185 47.1026 72.7806C47.2357 72.3763 47.2826 71.9485 47.2402 71.525L46.4531 63.6523ZM40.4291 61.079C40.6051 59.6549 40.9182 58.2511 41.3641 56.8871C42.1446 54.5904 43.1701 53.1928 44.4219 52.7163V62.6875H42.3906C42.3906 62.4989 42.3381 62.314 42.2389 62.1536C42.1398 61.9932 41.9979 61.8635 41.8292 61.7792L40.4291 61.079ZM44.9613 72.5096C44.8666 72.6153 44.7505 72.6998 44.6208 72.7574C44.491 72.815 44.3505 72.8444 44.2086 72.8438H42.6039C42.4619 72.8438 42.3216 72.814 42.1918 72.7565C42.0621 72.6989 41.9458 72.6147 41.8506 72.5095C41.7554 72.4042 41.6833 72.2801 41.6389 72.1453C41.5946 72.0104 41.579 71.8678 41.5932 71.7266L42.2941 64.7188H44.5184L45.2193 71.7266C45.2342 71.8679 45.2189 72.0108 45.1745 72.1457C45.1301 72.2807 45.0576 72.4048 44.9617 72.5096H44.9613Z" fill="white"/>
<path d="M78.9531 19.0156H70.8281C70.5588 19.0156 70.3004 19.1226 70.11 19.3131C69.9195 19.5036 69.8125 19.7619 69.8125 20.0312V21.0469H48.609C47.6909 21.0475 46.7875 21.2779 45.9811 21.7169L36.0378 27.1406H24.1094C22.4008 27.1406 21.0625 28.9251 21.0625 31.2031C21.0625 33.3293 22.2286 35.0244 23.7731 35.2416L19.1941 50.7426C19.1901 50.7564 19.1863 50.7704 19.1827 50.7843C19.0822 51.187 19.0313 51.6006 19.0312 52.0157V80.9688C19.0312 81.2381 19.1383 81.4964 19.3287 81.6869C19.5192 81.8774 19.7775 81.9844 20.0469 81.9844H65.75C66.0194 81.9844 66.2777 81.8774 66.4682 81.6869C66.6586 81.4964 66.7656 81.2381 66.7656 80.9688V52.1006C66.7657 51.6156 66.6962 51.133 66.5592 50.6677L62.3276 36.2804C63.7057 36.2703 65.0296 35.7427 66.037 34.8023C67.0443 33.8619 67.6615 32.5772 67.7661 31.2031H69.8125V33.2344C69.8125 33.5037 69.9195 33.7621 70.11 33.9525C70.3004 34.143 70.5588 34.25 70.8281 34.25H78.9531C79.2225 34.25 79.4808 34.143 79.6713 33.9525C79.8617 33.7621 79.9688 33.5037 79.9688 33.2344V20.0312C79.9688 19.7619 79.8617 19.5036 79.6713 19.3131C79.4808 19.1226 79.2225 19.0156 78.9531 19.0156ZM23.0938 31.2031C23.0938 29.9632 23.6953 29.1719 24.1094 29.1719H53.1419L49.0794 33.2344H24.1094C23.6953 33.2344 23.0938 32.4431 23.0938 31.2031ZM54.7296 50.7844C54.629 51.1871 54.5782 51.6007 54.5781 52.0158V79.9531H21.0625V52.0157C21.0626 51.7733 21.0915 51.5317 21.1487 51.2961L25.8839 35.2656H47.2419C46.7117 36.1614 46.5104 37.214 46.6727 38.2422C46.8349 39.2704 47.3506 40.2098 48.1309 40.8988C48.9112 41.5877 49.9072 41.9831 50.9476 42.0168C51.988 42.0505 53.0075 41.7204 53.8308 41.0834L58.7168 37.2828L54.741 50.7427C54.7369 50.7566 54.7331 50.7705 54.7296 50.7844ZM60.6719 77.327L63.298 79.9531H58.0457L60.6719 77.327ZM64.6106 51.2413C64.6928 51.5203 64.7344 51.8097 64.7344 52.1006V78.5168L61.6875 75.4699V53.5469C61.6875 53.2775 61.5805 53.0192 61.39 52.8287C61.1996 52.6383 60.9412 52.5312 60.6719 52.5312C60.4025 52.5312 60.1442 52.6383 59.9537 52.8287C59.7633 53.0192 59.6562 53.2775 59.6562 53.5469V75.47L56.6094 78.5169V52.0157C56.6095 51.7733 56.6384 51.5317 56.6956 51.2961L60.6692 37.8421L64.6106 51.2413ZM69.8125 29.1719H67.3716C66.9417 29.1724 66.5295 29.3434 66.2255 29.6474C65.9215 29.9514 65.7505 30.3635 65.75 30.7934C65.749 31.7099 65.3845 32.5884 64.7364 33.2364C64.0884 33.8845 63.2099 34.249 62.2934 34.25H59.7968C59.48 34.2506 59.1722 34.3561 58.9218 34.5502L52.5834 39.4805C52.0932 39.8621 51.4759 40.0425 50.8573 39.9848C50.2387 39.9271 49.6654 39.6357 49.2542 39.1699C48.8431 38.7042 48.625 38.0992 48.6444 37.4782C48.6638 36.8572 48.9193 36.267 49.3588 35.8279L56.3118 28.8748C56.454 28.7328 56.5508 28.5518 56.5901 28.3547C56.6294 28.1577 56.6093 27.9534 56.5324 27.7677C56.4555 27.5821 56.3253 27.4234 56.1582 27.3117C55.9911 27.2001 55.7947 27.1406 55.5938 27.1406H40.2799L46.954 23.5001C47.4618 23.2236 48.0308 23.0785 48.609 23.0781H69.8125V29.1719ZM77.9375 32.2188H71.8438V21.0469H77.9375V32.2188Z" fill="white"/>
<path d="M37.3125 51.5156C37.3125 51.2463 37.2055 50.9879 37.015 50.7975C36.8246 50.607 36.5662 50.5 36.2969 50.5C36.0275 50.5 35.7692 50.607 35.5787 50.7975C35.3883 50.9879 35.2812 51.2463 35.2812 51.5156V54.5625H33.25V51.5156C33.25 51.2463 33.143 50.9879 32.9525 50.7975C32.7621 50.607 32.5037 50.5 32.2344 50.5C31.965 50.5 31.7067 50.607 31.5162 50.7975C31.3258 50.9879 31.2188 51.2463 31.2188 51.5156V54.5625H29.1875V51.5156C29.1875 51.2463 29.0805 50.9879 28.89 50.7975C28.6996 50.607 28.4412 50.5 28.1719 50.5C27.9025 50.5 27.6442 50.607 27.4537 50.7975C27.2633 50.9879 27.1562 51.2463 27.1562 51.5156V55.5781H27.1582C27.1575 55.7357 27.1935 55.8912 27.2635 56.0324L29.1702 59.8459L28.3299 71.611C28.3001 72.0284 28.3566 72.4474 28.4958 72.842C28.635 73.2365 28.854 73.5982 29.1392 73.9044C29.4243 74.2106 29.7694 74.4549 30.1531 74.6218C30.5367 74.7888 30.9507 74.875 31.3691 74.875H33.0997C33.5181 74.875 33.932 74.7888 34.3157 74.6218C34.6993 74.4549 35.0445 74.2106 35.3296 73.9044C35.6147 73.5982 35.8337 73.2365 35.9729 72.842C36.1122 72.4474 36.1686 72.0284 36.1388 71.611L35.2985 59.8459L37.2052 56.0324C37.2752 55.8912 37.3113 55.7357 37.3106 55.5781H37.3125V51.5156ZM34.6536 56.5938L33.638 58.625H30.8308L29.8152 56.5938H34.6536ZM33.8431 72.5201C33.7485 72.6227 33.6335 72.7045 33.5055 72.7602C33.3775 72.8159 33.2393 72.8444 33.0997 72.8438H31.3691C31.2296 72.8438 31.0916 72.815 30.9638 72.7594C30.8359 72.7037 30.7208 72.6223 30.6258 72.5203C30.5307 72.4182 30.4577 72.2977 30.4113 72.1662C30.3649 72.0347 30.3461 71.895 30.356 71.7559L31.1488 60.6562H33.3197L34.1125 71.7559C34.1231 71.895 34.1046 72.0348 34.0582 72.1664C34.0119 72.2979 33.9386 72.4184 33.8431 72.5201Z" fill="white"/>
</svg>
