<svg width="100" height="100" viewBox="0 0 100 100" fill="none" xmlns="http://www.w3.org/2000/svg">
<circle cx="50" cy="50" r="50" fill="#FF8B0F"/>
<path d="M50.5 37.0429C51.4541 37.0429 52.3869 36.76 53.1802 36.2299C53.9735 35.6998 54.5919 34.9464 54.957 34.0649C55.3221 33.1834 55.4177 32.2134 55.2315 31.2776C55.0454 30.3418 54.5859 29.4822 53.9112 28.8075C53.2366 28.1328 52.377 27.6733 51.4412 27.4872C50.5054 27.3011 49.5354 27.3966 48.6539 27.7617C47.7723 28.1269 47.0189 28.7452 46.4888 29.5385C45.9587 30.3319 45.6758 31.2646 45.6758 32.2187C45.6772 33.4977 46.186 34.724 47.0904 35.6284C47.9948 36.5328 49.221 37.0415 50.5 37.0429ZM50.5 29.4258C51.0524 29.4258 51.5924 29.5896 52.0517 29.8965C52.511 30.2033 52.869 30.6395 53.0804 31.1499C53.2918 31.6602 53.3471 32.2218 53.2393 32.7636C53.1315 33.3054 52.8655 33.803 52.4749 34.1936C52.0843 34.5842 51.5867 34.8503 51.0449 34.958C50.5031 35.0658 49.9415 35.0105 49.4312 34.7991C48.9208 34.5877 48.4846 34.2297 48.1777 33.7704C47.8708 33.3111 47.707 32.7711 47.707 32.2187C47.7079 31.4782 48.0024 30.7683 48.526 30.2447C49.0496 29.7211 49.7595 29.4266 50.5 29.4258Z" fill="white"/>
<path d="M70.7713 44.1197C70.7094 43.9093 70.581 43.7245 70.4054 43.5931C70.2297 43.4617 70.0163 43.3906 69.7969 43.3906H56.3061L57.4106 40.9966C59.2353 39.5599 60.5669 37.5903 61.2202 35.3617C61.8735 33.1331 61.8161 30.7563 61.0559 28.5619C60.2957 26.3674 58.8705 24.4644 56.9785 23.1176C55.0866 21.7708 52.8219 21.047 50.4995 21.047C48.1771 21.047 45.9125 21.7708 44.0205 23.1176C42.1285 24.4644 40.7033 26.3674 39.9431 28.5619C39.1829 30.7563 39.1255 33.1331 39.7788 35.3617C40.4321 37.5903 41.7637 39.5599 43.5884 40.9966L44.6929 43.3906H31.2031C30.9838 43.3906 30.7703 43.4617 30.5947 43.5931C30.419 43.7245 30.2907 43.9093 30.2288 44.1197L20.0725 78.651C20.028 78.8024 20.0194 78.9622 20.0473 79.1175C20.0753 79.2729 20.1391 79.4196 20.2337 79.546C20.3283 79.6724 20.451 79.775 20.5922 79.8457C20.7333 79.9163 20.889 79.9531 21.0469 79.9531H79.9531C80.111 79.9531 80.2667 79.9163 80.4078 79.8457C80.549 79.775 80.6717 79.6724 80.7663 79.546C80.8609 79.4196 80.9247 79.2729 80.9527 79.1175C80.9807 78.9622 80.972 78.8024 80.9275 78.651L70.7713 44.1197ZM41.3594 32.2188C41.3593 30.6606 41.7575 29.1283 42.5162 27.7674C43.2749 26.4064 44.3689 25.262 45.6943 24.4428C47.0198 23.6236 48.5326 23.1568 50.0892 23.0868C51.6457 23.0168 53.1944 23.3458 54.588 24.0427C55.9816 24.7395 57.174 25.7811 58.0518 27.0684C58.9297 28.3557 59.4639 29.846 59.6038 31.3979C59.7436 32.9497 59.4844 34.5116 58.8508 35.9351C58.2172 37.3586 57.2302 38.5965 55.9836 39.5313C55.8492 39.6323 55.7419 39.7651 55.6714 39.9177L50.5 51.1232L45.3286 39.9184C45.258 39.7657 45.1508 39.633 45.0164 39.5319C43.877 38.6842 42.9525 37.5809 42.3173 36.3107C41.6821 35.0405 41.354 33.6389 41.3594 32.2188ZM45.6315 45.4219L49.5778 53.9726C49.6591 54.1487 49.7892 54.2979 49.9526 54.4025C50.116 54.5071 50.306 54.5627 50.5 54.5627C50.694 54.5627 50.884 54.5071 51.0474 54.4025C51.2109 54.2979 51.3409 54.1487 51.4222 53.9726L55.3685 45.4219H62.6636L50.7088 61.055L50.744 61.0819L39.2047 59.9279L45.9853 55.4075C46.1792 55.2783 46.3227 55.0863 46.3918 54.8637C46.4609 54.6412 46.4514 54.4017 46.3649 54.1853L42.8595 45.4219H45.6315ZM22.4043 77.9219L31.9631 45.4219H40.6721L44.1732 54.1745L35.7181 59.8113C35.544 59.9274 35.41 60.0944 35.3344 60.2895C35.2588 60.4847 35.2454 60.6984 35.2959 60.9015C35.3464 61.1046 35.4584 61.2871 35.6166 61.4241C35.7748 61.5611 35.9715 61.6458 36.1797 61.6668L54.4456 63.4935L40.9194 77.9219H22.4043ZM43.7037 77.9219L52.1945 68.8652L61.2512 77.9219H43.7037ZM64.1239 77.9219L53.585 67.3824L57.3352 63.3822C57.4648 63.244 57.5531 63.0723 57.5902 62.8864C57.6273 62.7006 57.6117 62.5082 57.5451 62.3308C57.4786 62.1534 57.3637 61.9981 57.2135 61.8826C57.0634 61.767 56.8839 61.6958 56.6953 61.677L53.0681 61.3143L65.2206 45.4219H69.0369L78.5965 77.9219H64.1239Z" fill="white"/>
</svg>
