<svg width="100" height="100" viewBox="0 0 100 100" fill="none" xmlns="http://www.w3.org/2000/svg">
<circle cx="50" cy="50" r="50" fill="#FF8B0F"/>
<path d="M20.5761 70.6884C21.0416 70.9424 32.1053 76.9062 43.4062 76.9062C46.3977 76.8923 49.3794 76.5616 52.3012 75.9198L50.4223 77.7987C50.2999 77.9211 50.2108 78.0728 50.1635 78.2393C50.1162 78.4058 50.1123 78.5817 50.152 78.7502C50.1918 78.9187 50.274 79.0742 50.3908 79.202C50.5076 79.3298 50.6551 79.4256 50.8193 79.4803L55.1282 80.9165C55.3071 80.9762 55.4992 80.9849 55.6827 80.9416C55.8663 80.8982 56.0342 80.8046 56.1676 80.6713L65.8787 70.9601C67.3684 71.671 69.0229 71.9651 70.6663 71.8111C72.3097 71.657 73.8808 71.0607 75.2125 70.0854C76.5442 69.1102 77.5868 67.7924 78.2296 66.272C78.8724 64.7517 79.0913 63.0857 78.8632 61.4509C78.635 59.8161 77.9683 58.2736 76.9338 56.9874C75.8993 55.7012 74.5357 54.7192 72.9879 54.1458C71.44 53.5724 69.7658 53.429 68.143 53.7308C66.5202 54.0327 65.0095 54.7685 63.7713 55.8601C61.909 51.9742 59.2308 48.7182 55.9571 46.3868C53.8314 44.8691 51.4476 43.7502 48.9219 43.0848C51.3643 41.8451 53.318 39.8189 54.4678 37.3328C55.6176 34.8468 55.8964 32.0459 55.2592 29.382C54.6221 26.718 53.1062 24.3464 50.956 22.6496C48.8058 20.9528 46.1468 20.0298 43.4077 20.0294C40.6687 20.029 38.0093 20.9513 35.8587 22.6475C33.708 24.3437 32.1915 26.715 31.5536 29.3787C30.9158 32.0424 31.1938 34.8434 32.3429 37.3298C33.492 39.8161 35.4451 41.8429 37.8872 43.0832C33.6775 44.1877 29.8695 46.5628 26.8412 50.0367C22.4599 55.0628 20.0469 62.0804 20.0469 69.7969C20.0469 69.9793 20.096 70.1584 20.1892 70.3153C20.2823 70.4722 20.416 70.6011 20.5761 70.6884ZM64.7852 57.6902C65.7245 56.7487 66.9092 56.0895 68.2045 55.7877C69.4998 55.4858 70.8539 55.5534 72.1127 55.9827C73.3715 56.4119 74.4847 57.1857 75.3257 58.2161C76.1667 59.2465 76.7018 60.4921 76.8702 61.8115C77.0386 63.1308 76.8335 64.4709 76.2782 65.6795C75.723 66.8881 74.8399 67.9166 73.7292 68.6483C72.6185 69.3801 71.3249 69.7855 69.9953 69.8187C68.6657 69.8519 67.3534 69.5114 66.2077 68.8359C66.0137 68.7215 65.7872 68.6748 65.5638 68.7031C65.3404 68.7314 65.1327 68.8332 64.9734 68.9925L55.1748 78.7911L53.0204 78.0729L54.731 76.3624C54.8253 76.2681 54.9001 76.1561 54.9511 76.0329C55.0022 75.9096 55.0285 75.7776 55.0285 75.6442C55.0285 75.5108 55.0022 75.3787 54.9511 75.2555C54.9001 75.1323 54.8253 75.0203 54.731 74.926L52.5765 72.7716L54.0128 71.3353L56.1673 73.4897C56.3578 73.6801 56.6161 73.7871 56.8854 73.7871C57.1548 73.7871 57.4131 73.6801 57.6035 73.4897L63.5371 67.5561C63.6963 67.3969 63.7982 67.1892 63.8265 66.9658C63.8549 66.7424 63.8082 66.5159 63.6937 66.3219C62.8927 64.9658 62.5652 63.3819 62.7628 61.8193C62.9603 60.2568 63.6718 58.8042 64.7852 57.6902ZM33.25 32.2187C33.25 30.21 33.8457 28.2464 34.9616 26.5762C36.0776 24.906 37.6638 23.6043 39.5196 22.8356C41.3754 22.0669 43.4175 21.8657 45.3876 22.2576C47.3578 22.6495 49.1674 23.6168 50.5878 25.0372C52.0082 26.4576 52.9755 28.2672 53.3674 30.2373C53.7592 32.2075 53.5581 34.2495 52.7894 36.1054C52.0207 37.9612 50.7189 39.5474 49.0488 40.6633C47.3786 41.7793 45.415 42.375 43.4062 42.375C40.7136 42.3719 38.1321 41.3009 36.2281 39.3969C34.3241 37.4929 33.2531 34.9114 33.25 32.2187ZM28.3725 51.3715C32.2879 46.8799 37.6271 44.4062 43.4062 44.4062C47.484 44.3989 51.4615 45.6702 54.779 48.0414C57.9867 50.3258 60.5759 53.5948 62.2971 57.5166C61.3821 58.8402 60.8329 60.382 60.7052 61.9861C60.5775 63.5901 60.8757 65.1995 61.5698 66.6512L56.8852 71.3358L54.7307 69.1813C54.5403 68.9908 54.282 68.8838 54.0126 68.8838C53.7433 68.8838 53.485 68.9908 53.2945 69.1813L50.4218 72.054C50.2314 72.2444 50.1244 72.5027 50.1244 72.7721C50.1244 73.0414 50.2314 73.2997 50.4218 73.4902L51.0387 74.107C48.5251 74.6078 45.9692 74.8649 43.4062 74.875C33.9879 74.875 24.415 70.3576 22.0835 69.1819C22.2067 62.2004 24.4289 55.8955 28.3725 51.3715Z" fill="white"/>
<path d="M69.8125 65.7628C70.5168 65.7623 71.1991 65.5176 71.7432 65.0704C72.2873 64.6232 72.6596 64.0012 72.7965 63.3103C72.9334 62.6194 72.8266 61.9025 72.4942 61.2815C72.1618 60.6606 71.6245 60.1741 70.9736 59.905C70.3228 59.6358 69.5988 59.6006 68.9249 59.8054C68.251 60.0102 67.669 60.4423 67.278 61.0281C66.887 61.6139 66.7111 62.3171 66.7804 63.018C66.8498 63.7189 67.1599 64.374 67.6581 64.8719C67.9408 65.1549 68.2767 65.3794 68.6464 65.5323C69.0161 65.6852 69.4124 65.7635 69.8125 65.7628ZM69.0945 61.9993C69.2365 61.8573 69.4175 61.7605 69.6145 61.7214C69.8115 61.6822 70.0157 61.7023 70.2013 61.7792C70.3869 61.856 70.5455 61.9862 70.6571 62.1532C70.7687 62.3202 70.8282 62.5166 70.8282 62.7175C70.8282 62.9183 70.7687 63.1147 70.6571 63.2817C70.5455 63.4487 70.3869 63.5789 70.2013 63.6558C70.0157 63.7327 69.8115 63.7528 69.6145 63.7136C69.4175 63.6744 69.2365 63.5777 69.0945 63.4356C68.9992 63.3419 68.9236 63.2301 68.872 63.1068C68.8204 62.9835 68.7938 62.8511 68.7938 62.7175C68.7938 62.5838 68.8204 62.4515 68.872 62.3282C68.9236 62.2049 68.9992 62.0931 69.0945 61.9993Z" fill="white"/>
</svg>
