<svg width="100" height="100" viewBox="0 0 100 100" fill="none" xmlns="http://www.w3.org/2000/svg">
<circle cx="50" cy="50" r="50" fill="#FF8B0F"/>
<path fill-rule="evenodd" clip-rule="evenodd" d="M71.1156 28.7626C65.6069 23.7671 58.4365 21 51 21C43.5635 21 36.3931 23.7671 30.8844 28.7626L28.7626 30.8844C23.7671 36.3931 21 43.5635 21 51C21 58.4365 23.7671 65.6069 28.7626 71.1156L30.8844 73.2374C36.3931 78.2329 43.5635 81 51 81C58.4365 81 65.6069 78.2329 71.1156 73.2374L73.2374 71.1156C78.2329 65.6069 81 58.4365 81 51C81 43.5635 78.2329 36.3931 73.2374 30.8844L71.1156 28.7626ZM65.9763 49.5H77.9575C77.2922 37.4108 68.638 27.4162 57.1965 24.7189C58.1231 25.7575 58.9752 26.8602 59.7464 28.0188C62.4701 32.0969 65.6905 39.0796 65.9763 49.5ZM49.5 49.5V24.3615C48.46 25.1974 46.5456 26.9546 44.6489 29.8325C42.1982 33.5527 39.3016 39.931 39.0239 49.5H49.5ZM49.5 77.6108V52.5H39.0239C39.1953 58.0419 40.3808 65.4867 44.6592 72.04C45.9919 74.1235 47.6228 76.0004 49.5 77.6108ZM52.5 52.5V77.6111C54.3771 76.0005 56.008 74.1235 57.3408 72.04C59.7939 68.2823 62.6926 61.8987 62.9754 52.5H52.5ZM52.5 24.3615V49.5H62.9769C62.8087 43.8636 61.628 36.3247 57.3506 29.8325C55.4544 26.9546 53.54 25.1974 52.5 24.3615ZM42.2528 28.0188C43.0241 26.8602 43.8762 25.7575 44.8028 24.7189C33.362 27.4162 24.7078 37.4108 24.0418 49.5H36.023C36.3091 39.0796 39.5292 32.0969 42.2528 28.0188ZM36.0237 52.5H24.0425C24.7099 64.6265 33.4152 74.6466 44.9084 77.3061C43.9407 76.2134 43.0519 75.0534 42.2487 73.8347C39.5299 69.7201 36.314 62.7361 36.0237 52.5ZM59.7513 73.834C58.9481 75.0529 58.0593 76.2132 57.0917 77.3061C68.5848 74.6466 77.2901 64.6265 77.9575 52.4992H65.9763C65.6862 62.7354 62.4701 69.7193 59.7513 73.834Z" fill="white"/>
</svg>
